<svg xmlns="http://www.w3.org/2000/svg" width="1280" height="1280"><path fill-rule="evenodd" stroke="#000" stroke-linecap="round" stroke-width=".945" d="M295.5 357h-45V0H298q37 0 73 10t65.25 31.25 46.75 55T500.5 178v179H454V180.5a168 168 0 0 0-2.899-32.122q-3.747-19.214-12.336-34.429a96 96 0 0 0-6.265-9.699 124.16 124.16 0 0 0-54.71-41.902A149 149 0 0 0 375 61.25a209.6 209.6 0 0 0-54.978-12.601A256 256 0 0 0 295.5 47.5ZM45 357H0V0h45l115 65v49l-41 70.5L184.5 357h-48l-65-175L122 94.5 45 51Zm648.5 0h-45V183L564 133.5l18-31.5 66.5 39.5V0h45v168l84 49.5-17.5 30-66.5-38.5Zm198.5 0h-46V0h46zm166-150v57l-69-74.5v-46l69.5-67.5v55l-36.5 35v3z" font-size="12" style="fill:#000;stroke:#000;stroke-width:.25mm" transform="translate(110.75 461.5)" vector-effect="non-scaling-stroke"/></svg>