<svg xmlns="http://www.w3.org/2000/svg" viewBox="-10 0 560 1000"><path fill="currentColor" d="M97 800V86h153q108 0 174 43.5T490 262q0 53-20 85.5T415 398t-79 26v5q45 7 81.5 27t57.5 54.5 21 86.5q0 97-66.5 150T248 800zm90-410h43q64 0 100-15.5t51.5-42.5 15.5-61q0-50-36.5-79T228 163h-41zm98-76q-16 0-27-10t-11-31q0-22 11-31.5t27-9.5 26.5 9.5T322 273q0 21-10.5 31T285 314m-98 410h44q63 0 100-17.5t53-47 16-66.5q0-36-16.5-65.5t-53.5-47T229 463h-42zm98-90q-16 0-27-10t-11-31q0-22 11-31.5t27-9.5 26.5 9.5T322 593q0 21-10.5 31T285 634"/></svg>